<mxfile host="Electron" agent="Mozilla/5.0 (X11; Linux x86_64) AppleWebKit/537.36 (KHTML, like Gecko) draw.io/24.7.5 Chrome/126.0.6478.183 Electron/31.3.0 Safari/537.36" version="24.7.5">
  <diagram name="Page-1" id="bb7z4VYKWk_iUu6NJhJu">
    <mxGraphModel dx="989" dy="576" grid="1" gridSize="10" guides="1" tooltips="1" connect="1" arrows="1" fold="1" page="1" pageScale="1" pageWidth="2339" pageHeight="3300" math="0" shadow="0">
      <root>
        <mxCell id="0" />
        <mxCell id="1" parent="0" />
        <mxCell id="Y-bcmHFenQ4CXzgnaP6L-36" style="edgeStyle=orthogonalEdgeStyle;rounded=0;orthogonalLoop=1;jettySize=auto;html=1;exitX=1;exitY=0.75;exitDx=0;exitDy=0;endArrow=none;endFill=0;" parent="1" source="Y-bcmHFenQ4CXzgnaP6L-4" target="Y-bcmHFenQ4CXzgnaP6L-35" edge="1">
          <mxGeometry relative="1" as="geometry" />
        </mxCell>
        <mxCell id="Y-bcmHFenQ4CXzgnaP6L-38" value="GND" style="edgeLabel;html=1;align=center;verticalAlign=middle;resizable=0;points=[];" parent="Y-bcmHFenQ4CXzgnaP6L-36" vertex="1" connectable="0">
          <mxGeometry x="0.2689" relative="1" as="geometry">
            <mxPoint x="4" y="10" as="offset" />
          </mxGeometry>
        </mxCell>
        <mxCell id="Y-bcmHFenQ4CXzgnaP6L-48" style="edgeStyle=orthogonalEdgeStyle;rounded=0;orthogonalLoop=1;jettySize=auto;html=1;exitX=0.75;exitY=0;exitDx=0;exitDy=0;entryX=0.5;entryY=0;entryDx=0;entryDy=0;endArrow=none;endFill=0;" parent="1" source="Y-bcmHFenQ4CXzgnaP6L-4" target="Y-bcmHFenQ4CXzgnaP6L-8" edge="1">
          <mxGeometry relative="1" as="geometry">
            <Array as="points">
              <mxPoint x="358" y="518" />
              <mxPoint x="550" y="518" />
              <mxPoint x="550" y="560" />
            </Array>
          </mxGeometry>
        </mxCell>
        <mxCell id="Y-bcmHFenQ4CXzgnaP6L-50" value="thermocouple" style="edgeLabel;html=1;align=center;verticalAlign=middle;resizable=0;points=[];" parent="Y-bcmHFenQ4CXzgnaP6L-48" vertex="1" connectable="0">
          <mxGeometry x="-0.202" relative="1" as="geometry">
            <mxPoint x="-1" y="-8" as="offset" />
          </mxGeometry>
        </mxCell>
        <mxCell id="Y-bcmHFenQ4CXzgnaP6L-49" style="edgeStyle=orthogonalEdgeStyle;rounded=0;orthogonalLoop=1;jettySize=auto;html=1;exitX=0.75;exitY=1;exitDx=0;exitDy=0;entryX=0.5;entryY=1;entryDx=0;entryDy=0;endArrow=none;endFill=0;" parent="1" source="Y-bcmHFenQ4CXzgnaP6L-4" target="Y-bcmHFenQ4CXzgnaP6L-9" edge="1">
          <mxGeometry relative="1" as="geometry">
            <Array as="points">
              <mxPoint x="358" y="640" />
              <mxPoint x="550" y="640" />
              <mxPoint x="550" y="598" />
            </Array>
          </mxGeometry>
        </mxCell>
        <mxCell id="Y-bcmHFenQ4CXzgnaP6L-51" value="thermocouple" style="edgeLabel;html=1;align=center;verticalAlign=middle;resizable=0;points=[];" parent="Y-bcmHFenQ4CXzgnaP6L-49" vertex="1" connectable="0">
          <mxGeometry x="-0.1194" y="2" relative="1" as="geometry">
            <mxPoint x="-19" y="12" as="offset" />
          </mxGeometry>
        </mxCell>
        <mxCell id="Y-bcmHFenQ4CXzgnaP6L-4" value="&lt;font style=&quot;font-size: 18px;&quot;&gt;MCU&lt;/font&gt;" style="rounded=0;whiteSpace=wrap;html=1;labelBackgroundColor=default;fontSize=16;" parent="1" vertex="1">
          <mxGeometry x="290" y="537.5" width="90" height="82.5" as="geometry" />
        </mxCell>
        <mxCell id="Y-bcmHFenQ4CXzgnaP6L-5" style="edgeStyle=orthogonalEdgeStyle;shape=connector;rounded=0;orthogonalLoop=1;jettySize=auto;html=1;entryX=0.5;entryY=1;entryDx=0;entryDy=0;strokeColor=default;align=center;verticalAlign=middle;fontFamily=Helvetica;fontSize=16;fontColor=default;labelBackgroundColor=default;endArrow=none;endFill=0;" parent="1" edge="1">
          <mxGeometry relative="1" as="geometry">
            <mxPoint x="635" y="681" as="sourcePoint" />
            <mxPoint x="330" y="620" as="targetPoint" />
          </mxGeometry>
        </mxCell>
        <mxCell id="Y-bcmHFenQ4CXzgnaP6L-6" value="&lt;font style=&quot;font-size: 14px;&quot;&gt;PWM&lt;/font&gt;" style="edgeLabel;html=1;align=center;verticalAlign=middle;resizable=0;points=[];fontFamily=Helvetica;fontSize=16;fontColor=default;labelBackgroundColor=default;" parent="Y-bcmHFenQ4CXzgnaP6L-5" vertex="1" connectable="0">
          <mxGeometry x="0.0286" y="-2" relative="1" as="geometry">
            <mxPoint x="5" y="12" as="offset" />
          </mxGeometry>
        </mxCell>
        <mxCell id="Y-bcmHFenQ4CXzgnaP6L-7" value="" style="verticalLabelPosition=bottom;outlineConnect=0;align=center;dashed=0;html=1;verticalAlign=top;shape=mxgraph.pid2misc.fan;fanType=common;fontSize=16;fillColor=#dae8fc;strokeColor=#6c8ebf;" parent="1" vertex="1">
          <mxGeometry x="560" y="610" width="105" height="100" as="geometry" />
        </mxCell>
        <mxCell id="Y-bcmHFenQ4CXzgnaP6L-8" value="" style="rounded=0;whiteSpace=wrap;html=1;fontSize=16;fillColor=#f8cecc;strokeColor=#b85450;" parent="1" vertex="1">
          <mxGeometry x="550" y="560" width="110" height="15" as="geometry" />
        </mxCell>
        <mxCell id="Y-bcmHFenQ4CXzgnaP6L-9" value="" style="rounded=0;whiteSpace=wrap;html=1;fontSize=16;fillColor=#dae8fc;strokeColor=#6c8ebf;" parent="1" vertex="1">
          <mxGeometry x="550" y="582.5" width="110" height="15" as="geometry" />
        </mxCell>
        <mxCell id="Y-bcmHFenQ4CXzgnaP6L-10" style="edgeStyle=orthogonalEdgeStyle;shape=connector;rounded=0;orthogonalLoop=1;jettySize=auto;html=1;entryX=0.5;entryY=0;entryDx=0;entryDy=0;strokeColor=default;align=center;verticalAlign=middle;fontFamily=Helvetica;fontSize=16;fontColor=default;labelBackgroundColor=default;endArrow=none;endFill=0;" parent="1" source="yx7whQwpY6rR5zN-RPvr-3" edge="1">
          <mxGeometry relative="1" as="geometry">
            <mxPoint x="610" y="472" as="sourcePoint" />
            <mxPoint x="330" y="537.5" as="targetPoint" />
          </mxGeometry>
        </mxCell>
        <mxCell id="Y-bcmHFenQ4CXzgnaP6L-11" value="&lt;font style=&quot;font-size: 14px;&quot;&gt;PWM&lt;/font&gt;" style="edgeLabel;html=1;align=center;verticalAlign=middle;resizable=0;points=[];fontFamily=Helvetica;fontSize=16;fontColor=default;labelBackgroundColor=default;" parent="Y-bcmHFenQ4CXzgnaP6L-10" vertex="1" connectable="0">
          <mxGeometry x="-0.0106" y="-1" relative="1" as="geometry">
            <mxPoint x="12" y="11" as="offset" />
          </mxGeometry>
        </mxCell>
        <mxCell id="yx7whQwpY6rR5zN-RPvr-2" style="edgeStyle=orthogonalEdgeStyle;rounded=0;orthogonalLoop=1;jettySize=auto;html=1;endArrow=none;endFill=0;" edge="1" parent="1" source="yx7whQwpY6rR5zN-RPvr-3">
          <mxGeometry relative="1" as="geometry">
            <mxPoint x="605" y="470.0000000000001" as="targetPoint" />
          </mxGeometry>
        </mxCell>
        <mxCell id="Y-bcmHFenQ4CXzgnaP6L-12" value="" style="shape=mxgraph.pid.heat_exchangers.heat_exchanger_(straight_tubes);html=1;pointerEvents=1;align=center;verticalLabelPosition=bottom;verticalAlign=top;dashed=0;fontFamily=Helvetica;fontSize=16;labelBackgroundColor=default;fillColor=#f8cecc;strokeColor=#b85450;" parent="1" vertex="1">
          <mxGeometry x="556.25" y="490" width="97.5" height="60" as="geometry" />
        </mxCell>
        <mxCell id="Y-bcmHFenQ4CXzgnaP6L-13" value="heater" style="text;html=1;align=center;verticalAlign=middle;whiteSpace=wrap;rounded=0;fontFamily=Helvetica;fontSize=16;labelBackgroundColor=#FFCCCC;fillColor=#f8cecc;strokeColor=#b85450;" parent="1" vertex="1">
          <mxGeometry x="575" y="505" width="60" height="30" as="geometry" />
        </mxCell>
        <mxCell id="Y-bcmHFenQ4CXzgnaP6L-14" value="cooler" style="text;html=1;align=center;verticalAlign=middle;whiteSpace=wrap;rounded=0;fontFamily=Helvetica;fontSize=16;fontColor=default;labelBackgroundColor=default;" parent="1" vertex="1">
          <mxGeometry x="582.5" y="710" width="60" height="30" as="geometry" />
        </mxCell>
        <mxCell id="Y-bcmHFenQ4CXzgnaP6L-15" value="&lt;b&gt;TEG&lt;/b&gt;" style="text;html=1;align=center;verticalAlign=middle;whiteSpace=wrap;rounded=0;fontFamily=Helvetica;fontSize=16;fontColor=default;labelBackgroundColor=default;" parent="1" vertex="1">
          <mxGeometry x="657.5" y="563.75" width="60" height="30" as="geometry" />
        </mxCell>
        <mxCell id="Y-bcmHFenQ4CXzgnaP6L-27" value="" style="pointerEvents=1;verticalLabelPosition=bottom;shadow=0;dashed=0;align=center;html=1;verticalAlign=top;shape=mxgraph.electrical.resistors.resistor_2;direction=south;fillColor=#fff2cc;strokeColor=#d6b656;strokeWidth=3;" parent="1" vertex="1">
          <mxGeometry x="460" y="542.5" width="10" height="72.5" as="geometry" />
        </mxCell>
        <mxCell id="Y-bcmHFenQ4CXzgnaP6L-29" style="edgeStyle=orthogonalEdgeStyle;rounded=0;orthogonalLoop=1;jettySize=auto;html=1;entryX=0;entryY=0.5;entryDx=0;entryDy=0;entryPerimeter=0;endArrow=none;endFill=0;" parent="1" source="Y-bcmHFenQ4CXzgnaP6L-8" target="Y-bcmHFenQ4CXzgnaP6L-27" edge="1">
          <mxGeometry relative="1" as="geometry">
            <Array as="points">
              <mxPoint x="510" y="568" />
              <mxPoint x="510" y="530" />
              <mxPoint x="465" y="530" />
            </Array>
          </mxGeometry>
        </mxCell>
        <mxCell id="Y-bcmHFenQ4CXzgnaP6L-30" style="edgeStyle=orthogonalEdgeStyle;rounded=0;orthogonalLoop=1;jettySize=auto;html=1;entryX=1;entryY=0.5;entryDx=0;entryDy=0;entryPerimeter=0;endArrow=none;endFill=0;" parent="1" source="Y-bcmHFenQ4CXzgnaP6L-9" target="Y-bcmHFenQ4CXzgnaP6L-27" edge="1">
          <mxGeometry relative="1" as="geometry">
            <Array as="points">
              <mxPoint x="510" y="590" />
              <mxPoint x="510" y="630" />
              <mxPoint x="465" y="630" />
            </Array>
          </mxGeometry>
        </mxCell>
        <mxCell id="Y-bcmHFenQ4CXzgnaP6L-33" value="" style="shape=waypoint;sketch=0;fillStyle=solid;size=6;pointerEvents=1;points=[];fillColor=none;resizable=0;rotatable=0;perimeter=centerPerimeter;snapToPoint=1;" parent="1" vertex="1">
          <mxGeometry x="455" y="530" width="20" height="20" as="geometry" />
        </mxCell>
        <mxCell id="Y-bcmHFenQ4CXzgnaP6L-34" style="edgeStyle=orthogonalEdgeStyle;rounded=0;orthogonalLoop=1;jettySize=auto;html=1;exitX=1;exitY=0.25;exitDx=0;exitDy=0;entryX=0.879;entryY=0.58;entryDx=0;entryDy=0;entryPerimeter=0;endArrow=none;endFill=0;" parent="1" source="Y-bcmHFenQ4CXzgnaP6L-4" target="Y-bcmHFenQ4CXzgnaP6L-33" edge="1">
          <mxGeometry relative="1" as="geometry" />
        </mxCell>
        <mxCell id="Y-bcmHFenQ4CXzgnaP6L-37" value="ADC" style="edgeLabel;html=1;align=center;verticalAlign=middle;resizable=0;points=[];" parent="Y-bcmHFenQ4CXzgnaP6L-34" vertex="1" connectable="0">
          <mxGeometry x="0.4079" y="-1" relative="1" as="geometry">
            <mxPoint x="-2" y="-11" as="offset" />
          </mxGeometry>
        </mxCell>
        <mxCell id="Y-bcmHFenQ4CXzgnaP6L-35" value="" style="shape=waypoint;sketch=0;fillStyle=solid;size=6;pointerEvents=1;points=[];fillColor=none;resizable=0;rotatable=0;perimeter=centerPerimeter;snapToPoint=1;" parent="1" vertex="1">
          <mxGeometry x="455" y="610" width="20" height="20" as="geometry" />
        </mxCell>
        <mxCell id="Y-bcmHFenQ4CXzgnaP6L-40" value="&lt;font style=&quot;font-size: 12px;&quot;&gt;Rload&lt;/font&gt;" style="text;html=1;align=center;verticalAlign=middle;whiteSpace=wrap;rounded=0;fontFamily=Helvetica;fontSize=16;fontColor=default;labelBackgroundColor=default;" parent="1" vertex="1">
          <mxGeometry x="415" y="560" width="60" height="30" as="geometry" />
        </mxCell>
        <mxCell id="Y-bcmHFenQ4CXzgnaP6L-41" value="UART" style="edgeLabel;html=1;align=center;verticalAlign=middle;resizable=0;points=[];fontFamily=Helvetica;fontSize=11;fontColor=default;labelBackgroundColor=default;" parent="1" vertex="1" connectable="0">
          <mxGeometry x="250.24137931034488" y="566.0172413793102" as="geometry" />
        </mxCell>
        <mxCell id="Y-bcmHFenQ4CXzgnaP6L-43" style="edgeStyle=orthogonalEdgeStyle;rounded=0;orthogonalLoop=1;jettySize=auto;html=1;entryX=0;entryY=0.5;entryDx=0;entryDy=0;endArrow=none;endFill=0;" parent="1" source="Y-bcmHFenQ4CXzgnaP6L-42" target="Y-bcmHFenQ4CXzgnaP6L-4" edge="1">
          <mxGeometry relative="1" as="geometry" />
        </mxCell>
        <mxCell id="Y-bcmHFenQ4CXzgnaP6L-42" value="GUI" style="shape=mxgraph.signs.tech.computer;html=1;pointerEvents=1;fillColor=#000000;strokeColor=none;verticalLabelPosition=bottom;verticalAlign=top;align=center;fontFamily=Helvetica;fontSize=11;fontColor=default;labelBackgroundColor=default;" parent="1" vertex="1">
          <mxGeometry x="130" y="536" width="80" height="84" as="geometry" />
        </mxCell>
        <mxCell id="yx7whQwpY6rR5zN-RPvr-4" value="" style="edgeStyle=orthogonalEdgeStyle;rounded=0;orthogonalLoop=1;jettySize=auto;html=1;endArrow=none;endFill=0;" edge="1" parent="1" source="Y-bcmHFenQ4CXzgnaP6L-12" target="yx7whQwpY6rR5zN-RPvr-3">
          <mxGeometry relative="1" as="geometry">
            <mxPoint x="605" y="470.0000000000001" as="targetPoint" />
            <mxPoint x="605" y="490" as="sourcePoint" />
          </mxGeometry>
        </mxCell>
        <mxCell id="yx7whQwpY6rR5zN-RPvr-3" value="" style="shape=waypoint;sketch=0;fillStyle=solid;size=6;pointerEvents=1;points=[];fillColor=none;resizable=0;rotatable=0;perimeter=centerPerimeter;snapToPoint=1;strokeColor=default;strokeWidth=0;" vertex="1" parent="1">
          <mxGeometry x="595" y="462" width="20" height="20" as="geometry" />
        </mxCell>
      </root>
    </mxGraphModel>
  </diagram>
</mxfile>
